<svg xmlns="http://www.w3.org/2000/svg" fill="none" viewBox="0 0 24 24" data-component="TripleJDrum" class="nolnB"><path fill="currentColor" fill-rule="evenodd" d="m16.794 9.523 6.013-6.405a.538.538 0 0 0 .115-.508.523.523 0 0 0-.898-.205L16.35 9.118a.617.617 0 0 0-.606.189.635.635 0 0 0 .046.891.62.62 0 0 0 .882-.046.634.634 0 0 0 .123-.629z" clip-rule="evenodd"></path><path fill="currentColor" fill-rule="evenodd" d="m21.134 11.516-.003-.002v-.003a.11.11 0 0 0-.032-.051.111.111 0 0 0-.069-.033c-.003 0-.004-.003-.007-.003-.005 0-.008.004-.013.004l-.02.001c-.01.003-.02.01-.03.015l-.013.008a.12.12 0 0 0-.033.049c0 .004-.005.005-.006.01l-.001.006-1.733 8.468a.108.108 0 0 1-.078.103.106.106 0 0 1-.119-.05l-4.411-4.367a.114.114 0 0 0-.184.05l-1.661 6.013a.108.108 0 0 1-.079.102.107.107 0 0 1-.118-.049L6.835 15.33l-.003-.004-.002-.002c-.003-.002-.007-.002-.01-.005a.115.115 0 0 0-.052-.025h-.016c-.01 0-.022-.001-.033.002-.006.001-.012.006-.018.009-.004.002-.009 0-.013.002-.002.002-.002.005-.005.007a.113.113 0 0 0-.043.063.11.11 0 0 0-.002.06l.001.003v.003s2.603 6.095 2.694 6.312c.708 1.685 3.47 2.889 7.243 1.873 3.955-1.078 5.621-3.7 5.384-5.265-.04-.262-.826-6.846-.826-6.846z" clip-rule="evenodd"></path><path fill="currentColor" fill-rule="evenodd" d="M8.54.334a.528.528 0 0 0-.4-.327.53.53 0 0 0-.576.726l2.67 6.21c.215-.088.434-.173.66-.254L8.54.334z" clip-rule="evenodd"></path><path fill="currentColor" fill-rule="evenodd" d="M.525 11.78a.52.52 0 0 0-.276.078.537.537 0 0 0-.17.736.53.53 0 0 0 .453.25l5.032-.167c-.01-.029-.02-.056-.027-.085a2.589 2.589 0 0 1-.084-.718L.525 11.78z" clip-rule="evenodd"></path><path fill="currentColor" fill-rule="evenodd" d="M19.583 7.376c-.533.443-1.58 1.371-1.471 1.767.095.345.574.349 1.052.341l.43-.007-.402.152c-.668.254-1.171.404-1.306.78-.101.284.05.78.257 1.147l.098.176-.188-.068c-.619-.22-1.079-.31-1.457-.108-.37.196-.568.697-.732 1.315l-.086.324-.059-.33c-.133-.74-.284-1.04-.677-1.272-.662-.393-2.048.104-2.048.104s1.23-.91 1.227-1.556c-.003-.415-.303-.9-.804-1.265l-.34-.246.403.113c.652.183 1.171.151 1.523-.105.474-.344.574-.952.576-1.469l.003-.37.14.342c.189.456.327.927.718.95.352.023 1.166-.986 1.584-1.539-1.557-.493-3.703-.496-5.945.111-.368.1-.725.213-1.07.337l.594 1.604a.622.622 0 0 1 .505.388.634.634 0 0 1-.345.822.623.623 0 0 1-.813-.349.633.633 0 0 1 .097-.633l-.63-1.464-.002-.005-.049-.114c-2.709 1.13-4.543 2.96-4.585 4.63l.17.005 3.307.063a.622.622 0 0 1 .543-.331.628.628 0 0 1 .628.627.62.62 0 0 1-1.167.311l-3.221.107-.137.007c.709 2.022 4.327 2.809 8.231 1.751 4.007-1.085 6.794-3.701 6.226-5.843-.122-.462-.391-.864-.778-1.2z" clip-rule="evenodd"></path></svg>